<?xml version="1.0" encoding="UTF-8"?><svg id="Layer_1" xmlns="http://www.w3.org/2000/svg" viewBox="0 0 2000 2000"><defs><style>.cls-1{fill:#515d9a;}.cls-2{stroke:#515d9a;stroke-miterlimit:10;stroke-width:36px;}.cls-2,.cls-3{fill:#fff;}</style></defs><path class="cls-1" d="M1000,1999.5c-134.93,0-265.83-26.43-389.05-78.55-119.02-50.34-225.91-122.41-317.7-214.2-91.79-91.79-163.86-198.68-214.2-317.7C26.93,1265.83.5,1134.93.5,1000s26.43-265.83,78.55-389.05c50.34-119.02,122.41-225.91,214.2-317.7s198.68-163.86,317.7-214.2C734.17,26.93,865.07.5,1000,.5s265.83,26.43,389.05,78.55c119.02,50.34,225.91,122.41,317.7,214.2,91.79,91.79,163.86,198.68,214.2,317.7,52.12,123.22,78.55,254.12,78.55,389.05s-26.43,265.83-78.55,389.05c-50.34,119.02-122.41,225.91-214.2,317.7-91.79,91.79-198.68,163.86-317.7,214.2-123.22,52.12-254.12,78.55-389.05,78.55Z"/><path d="M1000,1c67.78,0,135.52,6.83,201.33,20.3,64.14,13.12,127.23,32.71,187.52,58.21,59.19,25.04,116.29,56.03,169.69,92.11,52.9,35.74,102.64,76.78,147.85,121.99,45.21,45.21,86.25,94.95,121.99,147.85,36.08,53.41,67.07,110.5,92.11,169.69,25.5,60.29,45.08,123.38,58.21,187.52,13.47,65.81,20.3,133.55,20.3,201.33s-6.83,135.52-20.3,201.33c-13.12,64.14-32.71,127.23-58.21,187.52-25.04,59.19-56.03,116.29-92.11,169.69-35.74,52.9-76.78,102.64-121.99,147.85-45.21,45.21-94.95,86.25-147.85,121.99-53.41,36.08-110.5,67.07-169.69,92.11-60.29,25.5-123.38,45.08-187.52,58.21-65.81,13.47-133.55,20.3-201.33,20.3s-135.52-6.83-201.33-20.3c-64.14-13.12-127.23-32.71-187.52-58.21-59.19-25.04-116.29-56.03-169.69-92.11-52.9-35.74-102.64-76.78-147.85-121.99-45.21-45.21-86.25-94.95-121.99-147.85-36.08-53.41-67.07-110.5-92.11-169.69-25.5-60.29-45.08-123.38-58.21-187.52-13.47-65.81-20.3-133.55-20.3-201.33s6.83-135.52,20.3-201.33c13.12-64.14,32.71-127.23,58.21-187.52,25.04-59.19,56.03-116.29,92.11-169.69,35.74-52.9,76.78-102.64,121.99-147.85s94.95-86.25,147.85-121.99c53.41-36.08,110.5-67.07,169.69-92.11,60.29-25.5,123.38-45.08,187.52-58.21C864.48,7.83,932.22,1,1000,1M1000,0C447.72,0,0,447.72,0,1000s447.72,1000,1000,1000,1000-447.72,1000-1000S1552.28,0,1000,0h0Z"/><path class="cls-3" d="M464.77,385.79h524c384.9,0,636.45,235.62,636.45,598.82s-244.12,629.61-648.49,629.61h-511.96V385.79ZM750.52,1399.64h214.26c253.36,0,365.35-175.16,365.35-414.4,0-200.67-104.87-384.88-363.67-384.88h-215.94v799.28Z"/><path class="cls-2" d="M1571,462.79l-428,788-290-188,78-117,155,101,359-660,126,76Z"/></svg>